<mxfile host="65bd71144e" scale="1" border="20">
    <diagram id="CX3G9Xh7dB3GCvSDx5av" name="第 1 页">
        <mxGraphModel dx="760" dy="449" grid="0" gridSize="10" guides="1" tooltips="1" connect="1" arrows="1" fold="1" page="1" pageScale="1" pageWidth="1169" pageHeight="827" background="#ffffff" math="0" shadow="0">
            <root>
                <mxCell id="0"/>
                <mxCell id="1" parent="0"/>
                <mxCell id="44" style="edgeStyle=none;html=1;exitX=1;exitY=0.25;exitDx=0;exitDy=0;strokeColor=#000000;entryX=-0.171;entryY=0.192;entryDx=0;entryDy=0;entryPerimeter=0;fontColor=#000000;" parent="1" source="20" target="43" edge="1">
                    <mxGeometry relative="1" as="geometry">
                        <mxPoint x="450" y="210" as="targetPoint"/>
                    </mxGeometry>
                </mxCell>
                <mxCell id="50" style="edgeStyle=none;html=1;exitX=1.195;exitY=0.887;exitDx=0;exitDy=0;entryX=-0.171;entryY=0.687;entryDx=0;entryDy=0;strokeColor=#000000;fontColor=#000000;exitPerimeter=0;entryPerimeter=0;" parent="1" source="20" target="43" edge="1">
                    <mxGeometry relative="1" as="geometry"/>
                </mxCell>
                <mxCell id="20" value="" style="rounded=0;whiteSpace=wrap;html=1;fillColor=#FFFFFF;strokeColor=#000000;fontColor=#000000;" parent="1" vertex="1">
                    <mxGeometry x="182.5" y="174" width="15" height="155" as="geometry"/>
                </mxCell>
                <mxCell id="22" value="学生注册页面" style="rounded=0;whiteSpace=wrap;html=1;fontColor=#000000;" parent="1" vertex="1">
                    <mxGeometry x="282" y="95" width="80" height="42" as="geometry"/>
                </mxCell>
                <mxCell id="73" style="edgeStyle=none;rounded=0;html=1;exitX=0.5;exitY=1;exitDx=0;exitDy=0;entryX=0.5;entryY=0;entryDx=0;entryDy=0;dashed=1;strokeColor=#000000;fontColor=#000000;endArrow=none;endFill=0;" parent="1" source="23" target="43" edge="1">
                    <mxGeometry relative="1" as="geometry"/>
                </mxCell>
                <mxCell id="23" value="数据库校验" style="rounded=0;whiteSpace=wrap;html=1;fillColor=#FFFFFF;strokeColor=#000000;fontColor=#000000;" parent="1" vertex="1">
                    <mxGeometry x="414" y="95" width="80" height="42" as="geometry"/>
                </mxCell>
                <mxCell id="75" style="edgeStyle=none;rounded=0;html=1;exitX=0.5;exitY=1;exitDx=0;exitDy=0;entryX=0.5;entryY=0;entryDx=0;entryDy=0;dashed=1;strokeColor=#000000;fontColor=#000000;endArrow=none;endFill=0;" parent="1" source="27" target="67" edge="1">
                    <mxGeometry relative="1" as="geometry"/>
                </mxCell>
                <mxCell id="27" value="教师首页" style="rounded=0;whiteSpace=wrap;html=1;fillColor=#FFFFFF;strokeColor=#000000;fontColor=#000000;" parent="1" vertex="1">
                    <mxGeometry x="539" y="95" width="80" height="42" as="geometry"/>
                </mxCell>
                <mxCell id="70" style="edgeStyle=none;html=1;exitX=0.5;exitY=1;exitDx=0;exitDy=0;entryX=0.5;entryY=0;entryDx=0;entryDy=0;strokeColor=#000000;fontColor=#000000;rounded=0;endArrow=none;endFill=0;dashed=1;" parent="1" source="28" target="20" edge="1">
                    <mxGeometry relative="1" as="geometry"/>
                </mxCell>
                <mxCell id="28" value="统一注册页面" style="rounded=0;whiteSpace=wrap;html=1;fillColor=#FFFFFF;strokeColor=#000000;fontColor=#000000;" parent="1" vertex="1">
                    <mxGeometry x="150" y="95" width="80" height="42" as="geometry"/>
                </mxCell>
                <mxCell id="29" value="学生注册页面" style="rounded=0;whiteSpace=wrap;html=1;fontColor=#000000;" parent="1" vertex="1">
                    <mxGeometry x="282" y="95" width="80" height="42" as="geometry"/>
                </mxCell>
                <mxCell id="71" style="edgeStyle=none;rounded=0;html=1;exitX=0.5;exitY=1;exitDx=0;exitDy=0;entryX=0.5;entryY=0;entryDx=0;entryDy=0;dashed=1;strokeColor=#000000;fontColor=#000000;endArrow=none;endFill=0;" parent="1" source="32" edge="1">
                    <mxGeometry relative="1" as="geometry">
                        <mxPoint x="321" y="338.0000000000001" as="targetPoint"/>
                    </mxGeometry>
                </mxCell>
                <mxCell id="32" value="教师注册页面" style="rounded=0;whiteSpace=wrap;html=1;fillColor=#FFFFFF;strokeColor=#000000;fontColor=#000000;" parent="1" vertex="1">
                    <mxGeometry x="282" y="95" width="80" height="42" as="geometry"/>
                </mxCell>
                <mxCell id="46" style="edgeStyle=none;html=1;strokeColor=#000000;fontColor=#000000;" parent="1" edge="1">
                    <mxGeometry relative="1" as="geometry">
                        <mxPoint x="441" y="266" as="sourcePoint"/>
                        <mxPoint x="201" y="266" as="targetPoint"/>
                    </mxGeometry>
                </mxCell>
                <mxCell id="57" style="edgeStyle=none;html=1;exitX=-0.047;exitY=0.942;exitDx=0;exitDy=0;entryX=0.982;entryY=0.145;entryDx=0;entryDy=0;entryPerimeter=0;strokeColor=#000000;fontColor=#000000;exitPerimeter=0;" parent="1" source="43" edge="1">
                    <mxGeometry relative="1" as="geometry">
                        <mxPoint x="328.23" y="365.2600000000001" as="targetPoint"/>
                    </mxGeometry>
                </mxCell>
                <mxCell id="43" value="" style="rounded=0;whiteSpace=wrap;html=1;fillColor=#FFFFFF;strokeColor=#000000;fontColor=#000000;" parent="1" vertex="1">
                    <mxGeometry x="446.5" y="174" width="15" height="200" as="geometry"/>
                </mxCell>
                <mxCell id="45" value="&lt;font&gt;手机号&lt;/font&gt;" style="text;html=1;align=center;verticalAlign=middle;resizable=0;points=[];autosize=1;strokeColor=none;fillColor=none;fontColor=#000000;" parent="1" vertex="1">
                    <mxGeometry x="259.5" y="180" width="54" height="26" as="geometry"/>
                </mxCell>
                <mxCell id="47" value="验证失败" style="text;html=1;align=center;verticalAlign=middle;resizable=0;points=[];autosize=1;strokeColor=none;fillColor=none;fontColor=#000000;" parent="1" vertex="1">
                    <mxGeometry x="336" y="236" width="66" height="26" as="geometry"/>
                </mxCell>
                <mxCell id="51" value="再次提交" style="text;html=1;align=center;verticalAlign=middle;resizable=0;points=[];autosize=1;strokeColor=none;fillColor=none;fontColor=#000000;" parent="1" vertex="1">
                    <mxGeometry x="257" y="287" width="66" height="26" as="geometry"/>
                </mxCell>
                <mxCell id="58" value="验证成功" style="text;html=1;align=center;verticalAlign=middle;resizable=0;points=[];autosize=1;strokeColor=none;fillColor=none;fontColor=#000000;" parent="1" vertex="1">
                    <mxGeometry x="355" y="329" width="66" height="26" as="geometry"/>
                </mxCell>
                <mxCell id="69" style="edgeStyle=none;html=1;exitX=1;exitY=0.75;exitDx=0;exitDy=0;strokeColor=#000000;fontColor=#000000;" parent="1" source="80" edge="1">
                    <mxGeometry relative="1" as="geometry">
                        <mxPoint x="578.5" y="456" as="sourcePoint"/>
                        <mxPoint x="571" y="427" as="targetPoint"/>
                    </mxGeometry>
                </mxCell>
                <mxCell id="67" value="" style="rounded=0;whiteSpace=wrap;html=1;fillColor=#FFFFFF;strokeColor=#000000;fontColor=#000000;" parent="1" vertex="1">
                    <mxGeometry x="571.5" y="375" width="15" height="78" as="geometry"/>
                </mxCell>
                <mxCell id="72" style="edgeStyle=none;rounded=0;html=1;exitX=0;exitY=0.25;exitDx=0;exitDy=0;entryX=1;entryY=0.25;entryDx=0;entryDy=0;dashed=1;strokeColor=#000000;fontColor=#000000;endArrow=none;endFill=0;" parent="1" edge="1">
                    <mxGeometry relative="1" as="geometry">
                        <mxPoint x="313.5" y="385" as="sourcePoint"/>
                        <mxPoint x="328.5" y="385" as="targetPoint"/>
                    </mxGeometry>
                </mxCell>
                <mxCell id="79" value="注册成功" style="text;html=1;align=center;verticalAlign=middle;resizable=0;points=[];autosize=1;strokeColor=none;fillColor=none;fontColor=#000000;" parent="1" vertex="1">
                    <mxGeometry x="417" y="397" width="66" height="26" as="geometry"/>
                </mxCell>
                <mxCell id="80" value="" style="rounded=0;whiteSpace=wrap;html=1;fillColor=#FFFFFF;strokeColor=#000000;fontColor=#000000;" parent="1" vertex="1">
                    <mxGeometry x="313.5" y="348" width="15" height="105" as="geometry"/>
                </mxCell>
            </root>
        </mxGraphModel>
    </diagram>
</mxfile>